<svg xmlns="http://www.w3.org/2000/svg" viewBox="0 0 800 600" font-family="Segoe UI, system-ui, sans-serif">
  <rect width="800" height="600" fill="#0d0d0d"/>
  <!-- mirror right -->
  <rect x="500" y="70" width="230" height="360" rx="12" fill="#151515" stroke="#2c2c2c" stroke-width="3"/>
  <rect x="510" y="80" width="210" height="340" rx="7" fill="#0a0a0c"/>
  <text x="532" y="146" font-size="36" font-weight="700" fill="#f5f5f5">19:08</text>
  <text x="534" y="167" font-size="11" font-weight="600" fill="#ffdd00">Fredag 4 juli</text>
  <text x="698" y="138" font-size="20" font-weight="700" fill="#ffdd00" text-anchor="end">16°</text>
  <text x="532" y="384" font-size="8" font-weight="600" fill="#ffdd00" letter-spacing="1.2">ELPRIS SE3</text>
  <text x="532" y="400" font-size="9" fill="#a5a5a5">42 öre/kWh</text>
  <!-- phone left -->
  <rect x="120" y="170" width="180" height="340" rx="24" fill="#161616" stroke="#2c2c2c" stroke-width="3"/>
  <rect x="132" y="200" width="156" height="290" rx="10" fill="#0f0f0f"/>
  <rect x="180" y="182" width="60" height="8" rx="4" fill="#0a0a0a"/>
  <!-- settings card on phone -->
  <rect x="144" y="216" width="132" height="54" rx="8" fill="#131313" stroke="#222"/>
  <text x="156" y="238" font-size="10" font-weight="600" fill="#ffdd00">Accent colour</text>
  <circle cx="162" cy="254" r="6" fill="#ffdd00"/>
  <circle cx="184" cy="254" r="6" fill="#7fd3ff"/>
  <circle cx="206" cy="254" r="6" fill="#5fe3a1"/>
  <circle cx="228" cy="254" r="6" fill="#ff8aa8"/>
  <rect x="144" y="282" width="132" height="42" rx="8" fill="#131313" stroke="#222"/>
  <text x="156" y="300" font-size="10" font-weight="600" fill="#ffdd00">Mirror ID</text>
  <text x="156" y="316" font-size="10" fill="#9a9a9a">granlunda-7</text>
  <!-- push button -->
  <rect x="144" y="436" width="132" height="36" rx="8" fill="#ffdd00"/>
  <text x="210" y="459" font-size="11" font-weight="700" fill="#0a0a0a" text-anchor="middle">Push to mirror</text>
  <!-- arc from phone to mirror -->
  <path d="M310 300 Q400 200 494 250" fill="none" stroke="#ffdd00" stroke-width="2.5" stroke-dasharray="2 8" stroke-linecap="round"/>
  <polygon points="494,250 478,246 484,260" fill="#ffdd00"/>
  <text x="788" y="588" font-size="11" fill="#333" text-anchor="end">sample visual — replace with photo</text>
</svg>
